<svg xmlns="http://www.w3.org/2000/svg" version="1.1" width="600px" height="600px" style="shape-rendering:geometricPrecision; text-rendering:geometricPrecision; image-rendering:optimizeQuality; fill-rule:evenodd; clip-rule:evenodd" xmlns:xlink="http://www.w3.org/1999/xlink">
<g><path style="opacity:0.999" fill="#1e1b23" d="M 110.5,-0.5 C 236.5,-0.5 362.5,-0.5 488.5,-0.5C 550.5,11.5 587.5,48.5 599.5,110.5C 599.5,236.5 599.5,362.5 599.5,488.5C 587.5,550.5 550.5,587.5 488.5,599.5C 362.5,599.5 236.5,599.5 110.5,599.5C 48.5,587.5 11.5,550.5 -0.5,488.5C -0.5,362.5 -0.5,236.5 -0.5,110.5C 11.5,48.5 48.5,11.5 110.5,-0.5 Z"/></g>
<g><path style="opacity:1" fill="#a29877" d="M 161.5,124.5 C 183.503,124.333 205.503,124.5 227.5,125C 251.459,164.417 275.292,203.917 299,243.5C 323.21,204.249 347.044,164.749 370.5,125C 390.842,124.167 411.175,124.334 431.5,125.5C 396.749,182.667 362.249,240.001 328,297.5C 327.5,356.166 327.333,414.832 327.5,473.5C 306.833,473.5 286.167,473.5 265.5,473.5C 265.667,414.499 265.5,355.499 265,296.5C 229.723,239.609 195.223,182.276 161.5,124.5 Z"/></g>
</svg>
